# AST/ASF file generated using VICON BodyLanguage
# -----------------------------------------------
:version 1.10
:name VICON
:units
  mass 1.0
  length 0.45
  angle deg
:documentation
   .ast/.asf automatically generated from VICON data using
   VICON BodyBuilder and BodyLanguage model FoxedUp or BRILLIANT.MOD
:root
   order TX TY TZ RX RY RZ
   axis XYZ
   position 0 0 0  
   orientation 0 0 0 
:bonedata
  begin
     id 1 
     name lhipjoint
     direction 0.54267 -0.795011 0.271047 
     length 2.39899 
     axis 0 0 0  XYZ
  end
  begin
     id 2 
     name lfemur
     direction 0.34202 -0.939693 0  
     length 7.49701  
     axis 0 0 20  XYZ
    dof rx ry rz
    limits (-160.0 20.0)
           (-70.0 70.0)
           (-60.0 70.0)
  end
  begin
     id 3 
     name ltibia
     direction 0.34202 -0.939693 0   
     length 8.1668   
     axis 0 0 20   XYZ
    dof rx
    limits (-10.0 170.0)
  end
  begin
     id 4 
     name lfoot
     direction 0.0736283 -0.202292 0.976554   
     length 2.13544   
     axis -90 7.62852e-016 20   XYZ
    dof rx rz
    limits (-45.0 90.0)
           (-70.0 20.0)
  end
  begin
     id 5 
     name ltoes
     direction 1.53557e-011 -4.22024e-011 1   
     length 1.07411   
     axis -90 7.62852e-016 20   XYZ
    dof rx
    limits (-90.0 20.0)
  end
  begin
     id 6 
     name rhipjoint
     direction -0.538061 -0.797813 0.272002   
     length 2.39057  
     axis 0 0 0  XYZ 
  end
  begin
     id 7 
     name rfemur
     direction -0.34202 -0.939693 0   
     length 7.50152   
     axis 0 0 -20   XYZ
    dof rx ry rz
    limits (-160.0 20.0)
           (-70.0 70.0)
           (-70.0 60.0)
  end
  begin
     id 8 
     name rtibia
     direction -0.34202 -0.939693 0   
     length 8.05793   
     axis 0 0 -20   XYZ
    dof rx
    limits (-10.0 170.0)
 end
 begin
     id 9 
     name rfoot
     direction -0.0765195 -0.210236 0.974652   
     length 2.28698  
     axis -90 -7.62852e-016 -20   XYZ
    dof rx rz
    limits (-45.0 90.0)
           (-20.0 70.0)
  end
  begin
     id 10 
     name rtoes
     direction -1.53542e-011 -4.21847e-011 1   
     length 1.14762   
     axis -90 -7.62852e-016 -20   XYZ
    dof rx
    limits (-90.0 20.0)
  end
  begin
     id 11 
     name lowerback
     direction -0.0217239 0.996592 -0.0795765   
     length 2.08176   
     axis 0 0 0   XYZ
    dof rx ry rz
    limits (-20.0 45.0)
           (-30.0 30.0)
           (-30.0 30.0)
  end
  begin
     id 12 
     name upperback
     direction -0.00563773 0.999651 -0.0258155   
     length 2.08898   
     axis 0 0 0   XYZ
    dof rx ry rz
    limits (-20.0 45.0)
           (-30.0 30.0)
           (-30.0 30.0)
  end
  begin
     id 13 
     name thorax
     direction 0.0032706 0.999923 0.0119599   
     length 2.0968   
     axis 0 0 0   XYZ
    dof rx ry rz
    limits (-20.0 45.0)
           (-30.0 30.0)
           (-30.0 30.0)
  end
  begin
     id 14 
     name lowerneck
     direction -0.0285886 0.99568 0.0883427   
     length 1.81272   
     axis 0 0 0   XYZ
    dof rx ry rz
    limits (-20.0 45.0)
           (-30.0 30.0)
           (-30.0 30.0)
  end
  begin
     id 15 
     name upperneck
     direction 0.0807535 0.97985 -0.18268   
     length 1.82518   
     axis 0 0 0   XYZ
    dof rx ry rz
    limits (-20.0 45.0)
           (-30.0 30.0)
           (-30.0 30.0)
  end
  begin
     id 16
     name head
     direction 0.0236605 0.997053 -0.0729767  
     length 1.84443  
     axis 0 0 0   XYZ
    dof rx ry rz
    limits (-20.0 45.0)
           (-30.0 30.0)
           (-30.0 30.0)
  end
  begin
     id 17 
     name lclavicle
     direction 0.918986 0.39378 -0.0200683  
     length 3.27822  
     axis 0 0 0   XYZ
    dof ry rz
    limits (-20.0 10.0)
           (0.0 20.0)
  end
  begin
     id 18 
     name lhumerus
     direction 1 -4.4897e-011 2.09544e-027   
     length 5.5568   
     axis 180 -30 -90   XYZ
    dof rx ry rz
    limits (-60.0 90.0)
           (-90.0 90.0)
           (-90.0 90.0)
  end
  begin
     id 19
     name lradius
     direction 1 -4.48957e-011 -1.27696e-026   
     length 3.63979   
     axis 180 -30 -90   XYZ
    dof rx
    limits (-10.0 170.0)
  end
  begin
     id 20
     name lwrist
     direction 1 -4.49001e-011 -1.49001e-026   
     length 1.8199   
     axis 9.0955e-015 90 90   XYZ
    dof ry
    limits (-180.0 0.0)
 end
  begin
     id 21 
     name lhand
     direction 1 -4.48709e-011 -2.9758e-026   
     length 0.569419   
     axis 1.90115e-014 90 90   XYZ
    dof rx rz
    limits (-90.0 90.0)
           (-45.0 45.0)
  end
  begin
     id 22 
     name lfingers
     direction 1 -4.49175e-011 -5.96505e-026   
     length 0.45908   
     axis 3.80223e-014 90 90   XYZ
    dof rx
    limits (0.0 90.0)
  end
  begin
     id 23
     name lthumb
     direction 0.707107 -6.34864e-011 0.707107   
     length 0.65915   
     axis -90 45 -3.84942e-014   XYZ
    dof rx rz
    limits (-45.0 45.0)
           (-45.0 45.0)
  end
  begin
     id 24 
     name rclavicle
     direction -0.911913 0.396426 -0.106115   
     length 3.46301  
     axis 0 0 0   XYZ 
    dof ry rz
    limits (-10.0 20.0)
           (-20.0 0.0)
  end
  begin
     id 25 
     name rhumerus
     direction -1 -4.48965e-011 7.78516e-028  
     length 5.34339   
     axis 180 30 90   XYZ
    dof rx ry rz
    limits (-90.0 60.0)
           (-90.0 90.0)
           (-90.0 90.0)
  end
  begin
     id 26 
     name rradius
     direction -1 -4.48948e-011 -5.79823e-027   
     length 3.65101   
     axis 180 30 90   XYZ
    dof rx
    limits (-10.0 170.0)
  end
  begin
     id 27 
     name rwrist
     direction -1 -4.48995e-011 -1.48996e-026   
     length 1.8255   
     axis 9.0955e-015 -90 -90   XYZ
    dof ry
    limits (-180.0 0.0)
  end
  begin
     id 28
     name rhand
     direction -1 -4.48957e-011 -2.97937e-026   
     length 0.694249   
     axis 1.90115e-014 -90 -90   XYZ
    dof rx rz
    limits (-90.0 90.0)
           (-45.0 45.0)
  end
  begin
     id 29
     name rfingers
     direction -1 -4.4898e-011 -5.95943e-026   
     length 0.559721   
     axis 3.80223e-014 -90 -90   XYZ
    dof rx
    limits (0.0 90.0)
  end
  begin
     id 30
     name rthumb
     direction -0.707107 -6.34969e-011 0.707107   
     length 0.803651   
     axis -90 -45 3.84942e-014   XYZ
    dof rx rz
    limits (-45.0 45.0)
           (-45.0 45.0)
  end
:hierarchy
  begin
    root lhipjoint rhipjoint lowerback
    lhipjoint lfemur
    lfemur ltibia
    ltibia lfoot
    lfoot ltoes
    rhipjoint rfemur
    rfemur rtibia
    rtibia rfoot
    rfoot rtoes
    lowerback upperback
    upperback thorax
    thorax lowerneck lclavicle rclavicle
    lowerneck upperneck
    upperneck head
    lclavicle lhumerus
    lhumerus lradius
    lradius lwrist
    lwrist lhand lthumb
    lhand lfingers
    rclavicle rhumerus
    rhumerus rradius
    rradius rwrist
    rwrist rhand rthumb
    rhand rfingers
  end

#!OML:ASF H:\Terrain\Walking\May29\JustinRory\rory.ASF
:FULLY-SPECIFIED
:DEGREES
359
root 9.531 18.1496 -2.28216 -176.076 8.62132 176.785
lowerback 1.43199 -2.08407 -8.38333
upperback 2.17781 -2.71479 -0.261114
thorax 1.84254 -1.45669 4.4101
lowerneck 0.650258 -10.0194 -8.40886
upperneck 3.60634 -13.569 7.23297
head 2.2434 -6.79194 3.47543
rclavicle 1.82882e-014 3.57812e-015
rhumerus -46.7962 -25.3359 -23.2841
rradius 134.4
rwrist -3.24853
rhand -25.3575 42.6629
rfingers 7.12502
rthumb 1.16625 12.6864
lclavicle 1.82882e-014 3.57812e-015
lhumerus -47.5681 18.6051 39.7322
lradius 133.776
lwrist 48.6788
lhand -19.1337 21.4824
lfingers 7.12502
lthumb 7.17613 51.3407
rfemur -27.011 1.76551 16.3738
rtibia 36.7237
rfoot -8.98214 -13.9185
rtoes 16.6578
lfemur -1.63076 8.29499 -25.9366
ltibia 29.1205
lfoot -24.3427 7.05847
ltoes -4.93079
360
root 9.52306 18.1384 -2.34752 -176.352 9.3245 177.179
lowerback 1.72272 -1.99183 -7.95947
upperback 2.25814 -2.61845 -0.113719
thorax 1.73399 -1.40284 4.33762
lowerneck 0.0988307 -9.5716 -7.55502
upperneck 3.96323 -12.9095 6.32199
head 2.25791 -6.4522 3.01688
rclavicle 1.18774e-014 1.72943e-014
rhumerus -46.0567 -20.343 -28.6741
rradius 136.681
rwrist -0.0628452
rhand -25.0811 44.9006
rfingers 7.12502
rthumb 1.43326 14.9257
lclavicle 1.18774e-014 1.72943e-014
lhumerus -47.1862 14.8633 45.2439
lradius 134.779
lwrist 45.3462
lhand -18.3478 20.5949
lfingers 7.12502
lthumb 7.93467 50.426
rfemur -26.4992 1.80204 16.856
rtibia 36.6748
rfoot -8.87942 -13.6823
rtoes 13.8809
lfemur -2.22674 9.13507 -25.2788
ltibia 31.1843
lfoot -23.7602 6.1786
ltoes -6.50796
361
root 9.51609 18.1566 -2.418 -176.472 9.95135 177.703
lowerback 1.77091 -1.96638 -7.42582
upperback 2.32525 -2.59134 0.08556
thorax 1.75467 -1.3882 4.24685
lowerneck -0.183976 -8.97405 -6.78913
upperneck 4.09382 -12.0732 5.63015
head 2.17484 -6.0288 2.67748
rclavicle 2.60408e-014 9.14409e-015
rhumerus -45.6057 -14.6807 -34.3639
rradius 138.218
rwrist 2.70999
rhand -25.4165 47.4019
rfingers 7.12502
rthumb 1.10932 17.4251
lclavicle 2.60408e-014 9.14409e-015
lhumerus -47.0635 10.9064 50.7246
lradius 135.12
lwrist 42.0004
lhand -17.364 19.3352
lfingers 7.12502
lthumb 8.88409 49.1282
rfemur -25.9244 2.04987 17.3637
rtibia 36.6841
rfoot -9.9306 -12.9914
rtoes 18.0703
lfemur -2.95637 10.0417 -24.3901
ltibia 33.2413
lfoot -22.8211 5.39621
ltoes -9.57966
362
root 9.51237 18.1511 -2.48428 -176.637 10.5805 177.853
lowerback 1.81686 -2.05736 -7.38461
upperback 2.29166 -2.72496 0.236458
thorax 1.71652 -1.45622 4.38166
lowerneck -0.192082 -7.9709 -6.26557
upperneck 4.27572 -10.7099 5.04134
head 2.06589 -5.34767 2.44587
rclavicle 6.01075e-014 -4.37326e-015
rhumerus -45.3404 -8.2791 -40.3274
rradius 138.787
rwrist 4.89054
rhand -25.0423 50.2124
rfingers 7.12502
rthumb 1.47067 20.2377
lclavicle 6.01075e-014 -4.37326e-015
lhumerus -47.4611 7.2505 55.8406
lradius 134.939
lwrist 38.3195
lhand -16.4277 18.4297
lfingers 7.12502
lthumb 9.78752 48.1822
rfemur -25.5961 2.12192 17.5684
rtibia 36.6682
rfoot -9.47172 -12.7748
rtoes 15.6132
lfemur -3.6572 10.9425 -23.8811
ltibia 35.3228
lfoot -21.8724 4.21917
ltoes -8.93616
363
root 9.51117 18.1392 -2.54818 -176.888 11.2545 177.771
lowerback 1.85979 -2.26621 -7.65946
upperback 2.15949 -3.02298 0.355517
thorax 1.61689 -1.60672 4.66112
lowerneck -0.28723 -6.69192 -6.04377
upperneck 5.06356 -8.96704 4.40268
head 2.18246 -4.47813 2.24576
rclavicle -2.52208e-014 -5.36719e-015
rhumerus -45.4188 -1.3817 -46.3878
rradius 138.45
rwrist 6.39266
rhand -23.6648 52.4583
rfingers 7.12502
rthumb 2.80104 22.4969
lclavicle -2.52208e-014 -5.36719e-015
lhumerus -48.3229 4.10754 60.2803
lradius 134.343
lwrist 33.8033
lhand -14.796 17.4383
lfingers 7.12502
lthumb 11.3615 47.1105
rfemur -25.2585 2.43822 17.4849
rtibia 36.748
rfoot -9.32416 -12.6146
rtoes 14.1578
lfemur -4.32904 11.8916 -23.6083
ltibia 37.3825
lfoot -20.6404 3.00355
ltoes -8.78466
364
root 9.50966 18.1281 -2.6101 -177.078 11.9417 177.628
lowerback 1.74863 -2.39107 -7.85896
upperback 2.13341 -3.18441 0.368067
thorax 1.68758 -1.69344 4.77929
lowerneck -0.460302 -5.71567 -5.68104
upperneck 5.54535 -7.6355 3.97637
head 2.25451 -3.80954 2.076
rclavicle 4.99446e-015 -1.03368e-014
rhumerus -46.0825 4.97103 -52.3609
rradius 137.346
rwrist 7.47085
rhand -23.196 54.65
rfingers 7.12502
rthumb 3.25381 24.6951
lclavicle 4.99446e-015 -1.03368e-014
lhumerus -48.7252 1.06236 64.289
lradius 133.102
lwrist 28.1628
lhand -12.9087 15.5882
lfingers 7.12502
lthumb 13.1812 45.1515
rfemur -25.0053 2.83367 17.3238
rtibia 36.7744
rfoot -9.41264 -12.5054
rtoes 13.6946
lfemur -5.13364 12.8654 -23.4131
ltibia 39.4803
lfoot -19.1101 2.28513
ltoes -10.4088
365
root 9.50542 18.1241 -2.66654 -177.151 12.6362 177.635
lowerback 1.64033 -2.25065 -7.63868
upperback 2.40339 -2.96008 0.188911
thorax 1.97547 -1.5885 4.46083
lowerneck -1.56907 -5.20433 -4.92404
upperneck 5.97053 -6.93653 3.95774
head 2.52282 -3.43547 1.92817
rclavicle 4.79568e-015 1.15295e-014
rhumerus -47.0277 9.59169 -57.7056
rradius 135.671
rwrist 8.03868
rhand -22.6939 56.5035
rfingers 7.12502
rthumb 3.73869 26.5566
lclavicle 4.79568e-015 1.15295e-014
lhumerus -47.9382 -2.24681 67.6707
lradius 131.175
lwrist 22.3127
lhand -11.4403 13.6105
lfingers 7.12502
lthumb 14.5963 43.0769
rfemur -24.8859 3.21243 17.3158
rtibia 36.8415
rfoot -9.34411 -12.2775
rtoes 12.5475
lfemur -6.04369 13.7636 -23.056
ltibia 41.5449
lfoot -17.498 1.71545
ltoes -11.7108
366
root 9.49716 18.1194 -2.71986 -177.158 13.3867 177.971
lowerback 1.78617 -1.97989 -6.9723
upperback 2.90973 -2.55703 -0.0453023
thorax 2.32101 -1.38461 3.84496
lowerneck -4.26416 -4.85673 -4.0744
upperneck 7.17803 -6.47793 4.26718
head 3.39118 -3.14388 1.83433
rclavicle 8.05078e-015 1.2921e-014
rhumerus -47.8039 12.6933 -62.1359
rradius 133.545
rwrist 8.98927
rhand -21.5266 57.1807
rfingers 7.12502
rthumb 4.86589 27.2566
lclavicle 8.05078e-015 1.2921e-014
lhumerus -46.3581 -5.54219 70.0586
lradius 128.944
lwrist 17.1328
lhand -10.4642 12.2812
lfingers 7.12502
lthumb 15.5366 41.677
rfemur -24.754 3.70275 17.6496
rtibia 36.8823
rfoot -9.16018 -12.0741
rtoes 10.7213
lfemur -6.94379 14.5861 -22.3357
ltibia 43.5642
lfoot -15.8541 0.928504
ltoes -12.5622
367
root 9.48665 18.1153 -2.77512 -177.175 14.1269 178.202
lowerback 1.8432 -1.89024 -6.60557
upperback 3.01174 -2.42967 -0.138661
thorax 2.35709 -1.31285 3.545
lowerneck -4.94315 -4.41543 -3.98283
upperneck 7.63254 -5.92855 4.89039
head 3.67865 -2.82899 2.04413
rclavicle -3.2551e-014 8.74653e-015
rhumerus -49.0443 15.5624 -65.8491
rradius 130.926
rwrist 12.22
rhand -21.7413 57.9873
rfingers 7.12502
rthumb 4.65854 28.0585
lclavicle -3.2551e-014 8.74653e-015
lhumerus -45.8327 -8.34805 71.9838
lradius 126.721
lwrist 12.8668
lhand -9.77068 11.4254
lfingers 7.12502
lthumb 16.2045 40.7682
rfemur -24.5809 4.0619 17.8744
rtibia 36.8575
rfoot -9.12013 -11.8314
rtoes 9.95717
lfemur -7.8413 15.2191 -21.7609
ltibia 45.5054
lfoot -14.4061 0.172362
ltoes -12.5128
368
root 9.47421 18.1153 -2.83204 -177.309 14.8426 178.171
lowerback 1.9593 -1.7386 -6.52419
upperback 3.28267 -2.20337 -0.290345
thorax 2.53904 -1.19937 3.34383
lowerneck -6.08305 -4.24361 -3.89158
upperneck 7.97671 -5.73693 5.45262
head 4.03603 -2.68754 2.21427
rclavicle 6.50523e-014 -4.37326e-015
rhumerus -49.9296 17.1196 -68.6521
rradius 128.199
rwrist 16.7906
rhand -22.4802 58.7885
rfingers 7.12502
rthumb 3.94505 28.8452
lclavicle 6.50523e-014 -4.37326e-015
lhumerus -44.7792 -10.7807 73.4173
lradius 124.233
lwrist 9.97104
lhand -8.27514 10.2895
lfingers 7.12502
lthumb 17.6441 39.5089
rfemur -24.3192 4.15288 17.8237
rtibia 36.77
rfoot -9.40173 -11.3196
rtoes 11.5327
lfemur -8.63508 15.7305 -21.4835
ltibia 47.3126
lfoot -13.2689 -0.493543
ltoes -11.7954
369
root 9.45834 18.1186 -2.88647 -177.467 15.6226 178.428
lowerback 2.17897 -1.60632 -6.25844
upperback 3.10673 -2.06022 -0.258824
thorax 2.20596 -1.11288 3.23969
lowerneck -5.36419 -4.08453 -4.46107
upperneck 8.02505 -5.5459 6.27564
head 3.96272 -2.57793 2.62702
rclavicle 1.93815e-014 -7.55382e-015
rhumerus -51.5671 18.3854 -70.6394
rradius 125.737
rwrist 20.8672
rhand -21.7997 58.9468
rfingers 7.12502
rthumb 4.60221 29.0168
lclavicle 1.93815e-014 -7.55382e-015
lhumerus -44.8853 -12.7813 74.5507
lradius 121.814
lwrist 8.2583
lhand -6.90737 9.35397
lfingers 7.12502
lthumb 18.9599 38.4499
rfemur -23.9491 4.29734 18.0786
rtibia 36.6529
rfoot -9.66851 -10.8647
rtoes 12.6135
lfemur -9.2925 16.3737 -20.8354
ltibia 48.969
lfoot -12.4487 -1.15532
ltoes -13.692
370
root 9.4411 18.1218 -2.94242 -177.609 16.5167 178.866
lowerback 2.42199 -1.40617 -5.74115
upperback 3.13777 -1.80544 -0.225901
thorax 2.05599 -0.971201 2.99197
lowerneck -5.15165 -4.20768 -5.0483
upperneck 8.36362 -5.76612 7.32822
head 3.69375 -2.63479 2.77099
rclavicle 6.34123e-014 -1.19271e-015
rhumerus -52.5214 18.5921 -71.6504
rradius 122.913
rwrist 24.6932
rhand -20.7329 59.2164
rfingers 7.12502
rthumb 5.63225 29.3113
lclavicle 6.34123e-014 -1.19271e-015
lhumerus -44.5095 -14.4175 75.0273
lradius 119.371
lwrist 7.60304
lhand -7.08455 9.54277
lfingers 7.12502
lthumb 18.7895 38.6553
rfemur -23.5046 4.54657 18.514
rtibia 36.5072
rfoot -10.0784 -10.452
rtoes 14.0617
lfemur -9.85005 17.1254 -19.9497
ltibia 50.4857
lfoot -12.2353 -1.70133
ltoes -17.7205
371
root 9.42506 18.1205 -2.99975 -177.797 17.5383 179.018
lowerback 2.60319 -1.26102 -5.55421
upperback 3.26786 -1.60861 -0.258086
thorax 2.06307 -0.867562 2.85679
lowerneck -5.15904 -4.52679 -5.45453
upperneck 8.2969 -6.1967 7.72577
head 3.72731 -2.84338 2.93376
rclavicle -9.44227e-015 3.97569e-016
rhumerus -52.8486 18.5679 -72.0738
rradius 119.684
rwrist 28.2516
rhand -19.9407 59.3617
rfingers 7.12502
rthumb 6.39702 29.4783
lclavicle -9.44227e-015 3.97569e-016
lhumerus -43.8828 -15.149 74.9458
lradius 116.816
lwrist 8.02958
lhand -8.31527 10.0412
lfingers 7.12502
lthumb 17.6055 39.2641
rfemur -23.0964 4.80656 18.6223
rtibia 36.2942
rfoot -11.57 -9.54993
rtoes 23.074
lfemur -10.333 17.7528 -19.4179
ltibia 51.8389
lfoot -12.4244 -2.07559
ltoes -18.6053
372
root 9.4101 18.1201 -3.05204 -177.898 18.4681 179.076
lowerback 2.82226 -1.17971 -5.63088
upperback 3.26274 -1.5158 -0.20582
thorax 1.93056 -0.819758 2.95848
lowerneck -4.6303 -5.0463 -5.90286
upperneck 7.74186 -6.88558 8.00598
head 3.54419 -3.20845 3.06708
rclavicle -3.4837e-014 -2.82274e-014
rhumerus -52.9316 18.4593 -71.9673
rradius 116.273
rwrist 30.8734
rhand -19.0834 59.1195
rfingers 7.12502
rthumb 7.22469 29.2629
lclavicle -3.4837e-014 -2.82274e-014
lhumerus -43.5271 -15.0417 74.6599
lradius 114.287
lwrist 9.0651
lhand -9.04798 10.486
lfingers 7.12502
lthumb 16.9002 39.7707
rfemur -22.8106 4.98603 18.6351
rtibia 36.0405
rfoot -12.1605 -8.74225
rtoes 26.4719
lfemur -10.9111 18.122 -19.012
ltibia 53.0357
lfoot -12.5665 -2.32993
ltoes -15.5174
